<?xml version="1.0" standalone="no"?>
<!DOCTYPE svg PUBLIC "-//W3C//DTD SVG 20010904//EN"
 "http://www.w3.org/TR/2001/REC-SVG-20010904/DTD/svg10.dtd">
<svg version="1.0" xmlns="http://www.w3.org/2000/svg"
 width="500.000000pt" height="500.000000pt" viewBox="0 0 500.000000 500.000000"
 preserveAspectRatio="xMidYMid meet">
<metadata>
Created by potrace 1.14, written by Peter Selinger 2001-2017
</metadata>
<g transform="translate(0.000000,500.000000) scale(0.100000,-0.100000)"
fill="#000000" stroke="none">
<path d="M2120 2800 l0 -830 170 0 170 0 0 195 c0 107 2 195 5 195 3 0 92 -88
199 -195 l194 -195 336 0 336 0 0 183 0 182 24 -57 c67 -163 239 -298 419
-328 122 -21 301 7 394 60 31 18 32 18 50 -2 26 -30 112 -68 153 -68 98 0 196
72 220 160 25 91 -15 196 -92 247 -53 36 -157 44 -209 18 -82 -41 -129 -113
-129 -197 l-1 -53 -36 70 c-19 39 -37 71 -38 73 -1 2 -30 -6 -64 -18 -100 -33
-182 -21 -251 37 -113 97 -120 252 -16 359 75 76 163 94 276 54 30 -10 55 -18
56 -17 1 1 27 52 58 114 l56 112 -43 25 c-104 61 -290 82 -426 47 -169 -42
-321 -173 -382 -330 l-18 -46 -1 183 0 182 -362 0 -363 0 -172 -172 -173 -173
0 508 0 507 -170 0 -170 0 0 -830z m1068 -511 l-3 -200 -180 179 c-99 99 -189
189 -199 201 l-20 22 200 200 199 199 3 -200 c1 -110 1 -290 0 -401z"/>
<path d="M3275 3554 c-150 -82 -153 -283 -6 -361 86 -45 191 -20 255 60 29 36
31 45 31 116 0 88 -20 128 -83 172 -45 31 -151 38 -197 13z"/>
<path d="M743 2971 c-58 -20 -110 -56 -165 -115 l-38 -39 0 71 0 72 -170 0
-170 0 0 -495 0 -495 170 0 170 0 0 265 c0 281 6 322 53 389 48 67 185 88 285
41 30 -14 52 -19 52 -13 0 6 2 9 4 7 3 -2 -2 -31 -10 -64 -28 -120 -11 -271
43 -382 40 -83 138 -183 216 -221 167 -83 382 -59 509 56 l38 34 0 -56 0 -56
170 0 170 0 0 495 0 495 -170 0 -170 0 0 -46 0 -46 -32 24 c-61 45 -110 69
-172 83 -118 28 -259 12 -357 -42 -43 -23 -123 -96 -164 -148 -9 -11 2 17 25
62 l40 83 -28 14 c-90 47 -211 58 -299 27z m864 -295 c43 -22 93 -74 110 -115
23 -53 18 -154 -9 -208 -78 -158 -328 -160 -408 -3 -69 136 -4 294 140 341 36
12 132 4 167 -15z"/>
</g>
</svg>
